<?xml version="1.0" encoding="UTF-8"?>
<svg version="1.1" xmlns="http://www.w3.org/2000/svg" width="55" height="26">
<path d="M0 0 C3.21810956 0.60383954 5.14024903 1.65290332 7.6875 3.6875 C11.9791066 7.02541624 16.44905203 10.02924229 21 13 C20.67 13.99 20.34 14.98 20 16 C17.48828125 17.2109375 17.48828125 17.2109375 14.3125 18.375 C9.27295901 20.34413181 5.98290519 22.42559791 2 26 C1.01 26 0.02 26 -1 26 C-1 23.69 -1 21.38 -1 19 C-12.020633 18.79464659 -22.99852423 19.41869661 -34 20 C-34 19.01 -34 18.02 -34 17 C-26.97942879 15.90733757 -20.09531697 15.88467118 -13 15.9375 C-11.26556641 15.94426758 -11.26556641 15.94426758 -9.49609375 15.95117188 C-6.66400775 15.96287471 -3.83203189 15.97927004 -1 16 C-1 14.35 -1 12.7 -1 11 C-11.89 11 -22.78 11 -34 11 C-34 10.01 -34 9.02 -34 8 C-33.43192627 8.00523682 -32.86385254 8.01047363 -32.27856445 8.01586914 C-21.46623741 8.10221038 -10.76663255 8.11861117 0 7 C0 4.69 0 2.38 0 0 Z M3 5 C2.505 12.425 2.505 12.425 2 20 C5.23401498 18.70639401 8.2328399 17.44092886 11.3125 15.875 C12.00988281 15.52179687 12.70726562 15.16859375 13.42578125 14.8046875 C13.94527344 14.53914062 14.46476562 14.27359375 15 14 C15 13.34 15 12.68 15 12 C13.04775792 10.71593601 11.03659238 9.52058322 9 8.375 C7.02 7.26125 5.04 6.1475 3 5 Z " fill="#FFFFFF" transform="translate(34,0)"/>
</svg>
