<?xml version="1.0" encoding="UTF-8"?>
<svg id="Layer_1" data-name="Layer 1" xmlns="http://www.w3.org/2000/svg" xmlns:xlink="http://www.w3.org/1999/xlink" viewBox="0 0 512 512">
  <defs>
    <style>
      .cls-1, .cls-2 {
        stroke-width: 0px;
      }

      .cls-3 {
        font-family: aBigDeal, 'a Big Deal';
        font-size: 76.8px;
      }

      .cls-4 {
        filter: url(#drop-shadow-1);
      }

      .cls-5 {
        fill: #ea955b;
        font-family: Inter-Regular, Inter;
        font-size: 25.03px;
        font-variation-settings: 'opsz' 14, 'wght' 400;
      }

      .cls-6, .cls-2 {
        fill: #ea965a;
      }

      .cls-7 {
        fill: #131441;
      }
    </style>
    <filter id="drop-shadow-1" filterUnits="userSpaceOnUse">
      <feOffset dx="3" dy="4"/>
      <feGaussianBlur result="blur" stdDeviation="5"/>
      <feFlood flood-color="#231f20" flood-opacity=".3"/>
      <feComposite in2="blur" operator="in"/>
      <feComposite in="SourceGraphic"/>
    </filter>
  </defs>
  <g class="cls-4">
    <text class="cls-5" transform="translate(47.33 311.92)"><tspan x="0" y="0">IMAGINATION TO REALITY</tspan></text>
    <g>
      <g>
        <text class="cls-3" transform="translate(34.33 275.72)"><tspan class="cls-7" x="0" y="0">Weld</tspan><tspan class="cls-6" x="259.79" y="0">F</tspan></text>
        <g>
          <path class="cls-2" d="M422.31,220.62l-5.18,5.15s-.09-.62.08-1.2l-3.54-6.66h22.51l8.48,13.38,8.7-13.38h22.51l-18.22,28.15,20.03,30.3h-23.17l-9.85-14.83-10.52,14.83h-21.46s8.23-12.25,12.44-17.78c3.6-4.73,8.44-7.92,14.49-9.06,2.71-.51,5.24-1.7,7.01-3.98.6-.77.96-1.73,1.51-2.75-2.02-.32-3.69-.54-5.34-.87-2.49-.49-4.59-1.65-6.12-3.76-.77-1.06-1.69-2.01-2.49-3.05-2.26-2.97-5.44-4.41-9.1-5.31,1.35-2.91,2.55-5.72,2.49-9.16-2.69.99-4.07,3.21-5.87,4.98l.6-4.99Z"/>
          <path class="cls-2" d="M373.59,258.29c1.03-3.86,3.67-11.41,3.67-11.41,0,0-.03,1.15,0,1.73.22,3.58.25,7.2.72,10.75.59,4.42,4.18,7.82,8.64,8.07,11.13.61,21.22-8.35,22.08-19.49.96-12.39-7.11-22.95-19.31-25.28-.43-.08-.85-.24-1.23-.49,6.52.11,12.2,2.38,16.95,6.83,13.69,12.83,10.21,35.84-6.7,44.48-18.39,9.4-39.84-1.65-43.78-22.52-1.81-9.59-.45-18.87,2.62-27.98,1.09-3.24,2.24-6.49,3.65-9.6,2.93-6.47,2.95-13.04,1.17-19.75-.13-.48-.25-.97-.37-1.43.2-.1.32-.22.39-.19,8.84,3.43,15.65,8.83,17.44,18.72,1.05,5.76-.18,11.35-2.06,16.82-1.54,4.47-3.29,8.9-4.36,13.48-1.23,5.26-.97,10.67.11,15.99.09.43.26.84.39,1.27ZM368.5,208.37c1.21,6.17-.68,11.9-2.21,17.69,3.41-5.94,6.62-11.94,6.79-19.12,1.33,2.79,2.65,5.55,4.03,8.45.52-8.96-5.54-16.84-11.51-18.92,1.6,7.43-.07,14.28-3.18,20.91,3.18-2.24,4.66-5.58,6.08-9.01Z"/>
          <path class="cls-2" d="M426.1,235.58c2.6,1.36,4.8,2.52,7.06,3.71-1.07-.07-2.3.81-3.35.62-.79-.15-1.6-.8-2.16-1.44-.59-.69-.9-1.62-1.56-2.88Z"/>
        </g>
      </g>
      <path class="cls-1" d="M417.12,225.77s5.11-5.22,5.11-5.22c0,0,.2-.2.2-.2l-.03.28-.53,5-.3-.12c1.23-1.53,2.56-2.99,4.16-4.15.61-.44,1.3-.83,2.06-1.03,0,0,.02.29.02.29.07,3.27-1.07,6.41-2.44,9.32,0,0-.21-.44-.21-.44,3.62.87,7.1,2.7,9.47,5.61,0,0,2.32,2.83,2.32,2.83,1.79,2.69,5.01,3.65,8.09,3.96.21.03,3.51.58,3.65.6-2.09,4.92-5.03,6.75-10.22,7.6-4.06.93-7.79,3.07-10.77,5.98-5.69,6.18-10.13,13.45-15.02,20.27,4.71-6.99,8.97-14.38,14.63-20.66,2.98-3.04,6.83-5.27,11-6.24,1.05-.25,2.07-.4,3.05-.72,1.96-.63,3.75-1.71,4.97-3.4.52-.77,1-1.79,1.47-2.7l.27.53c-1.93-.34-4.44-.64-6.34-1.09-2.1-.54-4.21-2-5.34-3.68,0,0-2.31-2.84-2.31-2.84-2.26-2.81-5.62-4.57-9.07-5.44,0,0-.39-.1-.39-.1l.17-.34c1.37-2.79,2.54-5.86,2.53-9,0,0,.3.2.3.2-2.57.97-4.42,3.28-6.18,5.3.02-.23.7-5.19.74-5.55,0,0,.17.08.17.08l-5.25,5.08h0Z"/>
    </g>
  </g>
</svg>