<?xml version="1.0" encoding="UTF-8"?>
<svg id="Layer_1" data-name="Layer 1" xmlns="http://www.w3.org/2000/svg" viewBox="0 0 1000 1000">
  <defs>
    <style>
      .cls-1 {
        fill: #e28c2a;
      }

      .cls-2 {
        fill: #dd2f27;
      }

      .cls-3 {
        fill: #fcfaf0;
      }

      .cls-4 {
        fill: #f9f9ef;
      }

      .cls-5 {
        fill: #e38225;
      }

      .cls-6 {
        fill: #dc8827;
      }

      .cls-7 {
        fill: #f8efdb;
      }

      .cls-8 {
        fill: #fcf7eb;
      }

      .cls-9 {
        fill: #ec7f23;
      }

      .cls-10 {
        fill: #ee7f22;
      }

      .cls-11 {
        fill: #fafcf8;
      }

      .cls-12 {
        fill: #ef8022;
      }

      .cls-13 {
        fill: #ec8423;
      }

      .cls-14 {
        fill: #676868;
      }

      .cls-15 {
        fill: #fef9f2;
      }

      .cls-16 {
        fill: #fcf6eb;
      }

      .cls-17 {
        fill: #ec8023;
      }

      .cls-18 {
        fill: #fbfcf5;
      }

      .cls-19 {
        fill: #ee7e22;
      }

      .cls-20 {
        fill: #fefaf0;
      }

      .cls-21 {
        fill: #f8f9eb;
      }

      .cls-22 {
        fill: #fef9ed;
      }

      .cls-23 {
        fill: #f7eedc;
      }

      .cls-24 {
        fill: #fbfcf7;
      }

      .cls-25 {
        fill: #db3127;
      }

      .cls-26 {
        fill: #010101;
      }

      .cls-27 {
        fill: #fbf8e6;
      }

      .cls-28 {
        fill: #fef8f0;
      }

      .cls-29 {
        fill: #fef8ec;
      }

      .cls-30 {
        fill: #fef7ec;
      }
    </style>
  </defs>
  <g>
    <path class="cls-14" d="M527.41,134.99l22.16,102.35c17.86,2.73,35.56,6.29,52.97,11.03,4.87,1.32,25.57,9.11,28.28,8.33l68.21-78.82,61.04,33.95-32.58,98.52c.35,2.24,11.46,9.73,14.07,12.01,16.13,14.06,32.11,29.46,45.15,46.37,16.1-5.49,32.43-10.94,48.99-16.33,17.65-5.74,35.11-11.28,52.4-16.63l34.43,57.62-77.48,69.44c9.42,26.36,18.82,53.04,22.55,80.98l103.94,19.06.88,69.86-101.9,20.61c-.19,12.3-.38,24.6-.56,36.89-24.96-21.13-49.93-42.26-74.89-63.39,3.14-71.56-15.88-140.85-59.1-197.9-96.15-126.92-277.72-155.21-407.73-61.9-82.93,59.52-127.14,155.64-123.2,257.8-26.23,25.08-52.46,50.16-78.69,75.24-.27-11.74-.53-23.47-.8-35.21l-96.55-17.95-1.39-69.01,103-20.71c2.13-14.36,5.15-29.99,9.39-46.59,3.21-12.55,6.76-24.25,10.44-35.04l-78.89-69.19,33.01-59.08,99.98,32.11c17.04-22.21,37.13-41.55,57.88-60.25-10.8-33.45-21.6-66.89-32.39-100.34l57.9-33.79,68.31,76.71c2.88.99,18.77-6.18,23.12-7.58,19.26-6.22,39.11-11.64,59.16-14.34l19.51-102.99,69.41-1.83Z"/>
    <path class="cls-2" d="M748.02,516.29c-84.85-36.45-169.7-72.91-254.55-109.36-30.1,13.31-60.15,26.75-90.14,40.31-50.62,22.9-101.07,46.17-151.35,69.8,45.84-26.69,93.46-53.37,142.84-79.84,33.97-18.21,67.53-35.67,100.65-52.4,84.18,43.83,168.37,87.66,252.55,131.49Z"/>
    <circle class="cls-25" cx="500" cy="520.98" r="21.34"/>
    <path class="cls-17" d="M499.08,444.17c22.63-.65,37.16,13.47,39.6,15.92l-5.18,5.4c-2.4-2.23-14.81-13.31-33.73-12.69-17.33.56-28.43,10.56-31.07,13.07l-5.38-6.51c2.94-2.85,15.74-14.6,35.76-15.18Z"/>
    <circle class="cls-12" cx="335.86" cy="504.11" r="12.05"/>
    <circle class="cls-10" cx="666.24" cy="504.07" r="12.03"/>
    <path class="cls-9" d="M500.78,461.03c15.91.12,26.35,8.81,28.93,11.08l-6.13,5.58c-1.83-1.76-10.01-9.19-22.79-9.46-13.61-.28-22.43,7.77-24.13,9.38-1.45-2.15-2.91-4.29-4.36-6.44,2.72-2.25,13.07-10.25,28.48-10.14Z"/>
    <path class="cls-13" d="M499.96,478.18c9.51-.05,15.38,6.19,16.29,7.2-.81,1.48-1.62,2.97-2.43,4.45-1.06-.92-6.49-5.4-14.43-4.83-6.83.48-11.19,4.39-12.38,5.54-1.37-1.34-2.74-2.68-4.11-4.02.76-.96,6.79-8.29,17.05-8.34Z"/>
    <path class="cls-1" d="M342.06,519.87c-.18,2.01.75,6.39-.93,7.56-.94.66-10.14.78-10.92.29-.99-.62-1.87-6.2-.19-7.44.96-.71,9.42,1.4,12.04-.42Z"/>
    <path class="cls-5" d="M672.06,519.87c.27,5.86,1.19,7.93-5.49,7.99s-7.16-1.54-6.5-8c4.37.63,7.61,1.32,11.99,0Z"/>
    <path class="cls-19" d="M352.07,690.86c-70,2-140,4.01-210,6.01l185.57-35.93,2.85-125.14,104.08-25.92c27.77-1.63,39.98,11.79,41.52,38.44,2.07,35.59.59,75.88,1,112,.21,18.17-.23,36.38-.05,54.54-43.42-10.48-86.85-20.95-130.27-31.43,1.76,2.48,3.52,4.95,5.27,7.43Z"/>
    <path class="cls-3" d="M458.07,679.86c-1.33-.25-6-3.78-6-4.5v-147.5c1.18-.17,6,1.62,6,2.5v149.5Z"/>
    <path class="cls-21" d="M444.07,524.86v142c-1.56-.57-6-5.42-6-6.5v-135c0-2.1,4.53-.21,6-.5Z"/>
    <path class="cls-29" d="M431.07,524.86v129c-1.07.48-6-3.14-6-3.5v-125.5h6Z"/>
    <rect class="cls-15" x="411.01" y="526.84" width="6.06" height="115.02"/>
    <path class="cls-7" d="M390.07,622.36c-.04.27-1.21,2.62-1.49,2.49-1.73-2.02-5.09-2.55-5.49-5.51l.19-82.78c1.12-3.8,6.8-3.03,6.8-1.2v87Z"/>
    <path class="cls-22" d="M403.07,530.86v102c-3.3-.47-6.46-4.15-6.06-7.44l.06-92.06c.31-3.24,3.51-2.53,6-2.5Z"/>
    <rect class="cls-27" x="370.01" y="536.99" width="6.06" height="79.47"/>
    <rect class="cls-24" x="356.01" y="540.82" width="6.06" height="70.05"/>
    <path class="cls-23" d="M349.07,605.36c-.54,2.15-4.59.7-5.49-.51-2.77-3.69-.51-9.7-.46-13.45.19-16.17-.23-32.38-.04-48.55,1.43-.26,6-.02,6,1.5v61Z"/>
    <path class="cls-10" d="M671.94,536l1.27,124.73,181.86,29.13-204.99,1c3.33-3.33,6.67-6.65,10-9.98-45,11.33-90,22.66-135,33.99l.96-171.54c1.83-24.46,18.88-35.56,42.53-33.45l103.38,26.13Z"/>
    <path class="cls-11" d="M550.07,527.86v146.5c0,.41-4.35,6.08-6,4.5v-148.5c0-.94,4.61-3.06,6-2.5Z"/>
    <path class="cls-30" d="M558.07,524.86c8.66-.74,5.07,2.95,4.95,8.46-.89,38.9,1.44,78.06.67,116.88-.11,5.51.63,13.7-5.13,15.64l-.49-140.98Z"/>
    <path class="cls-4" d="M577.07,524.86v125.5c0,.36-4.93,3.98-6,3.5v-129h6Z"/>
    <path class="cls-20" d="M585.07,526.86l6.06,1.62v109.92c-.02,2.04-4.04,3.06-6.06,3.46v-115Z"/>
    <path class="cls-28" d="M599.07,632.86v-103c2.59,1.28,6.45.45,6.05,4.45-2.18,28.54,2.74,60.97-.07,89.04-.45,4.5-1.24,8.07-5.99,9.51Z"/>
    <path class="cls-16" d="M618.07,621.86c-.17.27-5.02,2.27-6,2v-88.5c0-1.98,6-1.99,6,0v86.5Z"/>
    <path class="cls-18" d="M626.07,536.86c.37-.42,6.53,1.28,6.02,3.48l.06,73.06c-.04,2.04-4.05,3.06-6.07,3.46v-80Z"/>
    <path class="cls-16" d="M640.07,610.86v-70c2.49-.03,5.7-.74,6,2.5-1.43,19.61,1.88,41.78.06,61.06-.36,3.84-1.69,6.54-6.06,6.44Z"/>
    <path class="cls-8" d="M659.07,542.86v62c0,.3-5.05,1.18-6,1v-63h6Z"/>
  </g>
  <g>
    <path class="cls-26" d="M101.32,789.07l-10.89.95-3.52-18.84-10.89,21.35-10.57-21.56-3.79,19.4-10.79-1.21,11.57-44.6,13.57,27.78,14.1-27.67,11.2,44.39Z"/>
    <path class="cls-26" d="M134.51,779.81l-2.79,9.36h-25.77v-42.33h25.24l2.16,9.36h-16.51v6.68h11.88v9.36h-11.98v7.58h17.77Z"/>
    <path class="cls-26" d="M172.54,757.04h-10.57v32.14l-10.89.95v-33.09h-11.41l2.84-10.19h30.03v10.19Z"/>
    <path class="cls-26" d="M223.81,789.18l-10.88,2.36-4.63-9.67h-15.94l-4.1,9.78-10.89-2.48,23.19-45.49,23.24,45.49ZM204.56,772.92l-4.31-9.51-4.2,9.51h8.51Z"/>
    <path class="cls-26" d="M257,779.02l-2.79,10.16h-25.29v-42.33l11.41-1.1v33.28h16.67Z"/>
    <path class="cls-26" d="M295.39,769.66l-1.53,9.36h-4.52v10.16l-10.57.95v-11.11h-18.09l14.25-32.97h14.3v23.61h6.15ZM279.46,770.08v-14.1l-5.94,14.1h5.94Z"/>
    <path class="cls-26" d="M333,777.13l-1.63,11.62c-2.41,1.12-5.17,1.68-8.26,1.68-4.06,0-7.82-.97-11.27-2.9-3.5-1.96-6.27-4.68-8.31-8.15-1.99-3.38-2.98-7.06-2.98-11.03s.9-7.48,2.71-10.84,4.33-6.08,7.58-8.15c3.56-2.28,7.11-3.42,10.64-3.42h2.26c2.51,0,4.98.4,7.42,1.21l1.73,12.04c-2.35-2.14-5.08-3.21-8.2-3.21-2.29,0-4.39.54-6.32,1.63-1.95,1.1-3.49,2.64-4.61,4.6-1.19,2.08-1.75,4.28-1.7,6.61.06,2.2.71,4.22,1.95,6.07,1.17,1.75,2.73,3.1,4.67,4.03,2.12,1.03,4.26,1.5,6.42,1.41,2.95-.12,5.58-1.19,7.88-3.21Z"/>
    <path class="cls-26" d="M373.4,786.92l-11.2,3.47-12.94-19.82v18.72l-11.2.63v-43.07h13.15c4.97,0,8.92.88,11.86,2.63,1.57.95,2.85,2.23,3.83,3.84,1.07,1.78,1.63,3.74,1.67,5.88.1,5.18-2.2,9.07-6.9,11.68l11.72,16.04ZM357.58,760.62c-.12-3.68-2.14-5.52-6.06-5.52h-2.26v11.36h2.48c2.58,0,4.32-1.01,5.24-3.03.44-.96.64-1.9.6-2.81Z"/>
    <path class="cls-26" d="M425.77,789.18l-10.88,2.36-4.63-9.67h-15.93l-4.1,9.78-10.89-2.48,23.19-45.49,23.24,45.49ZM406.53,772.92l-4.31-9.51-4.2,9.51h8.51Z"/>
    <path class="cls-26" d="M456.28,756.2h-15.41v9.04h11.41v9.58h-11.41v14.36l-10.99,1.05v-43.39h23.72l2.68,9.36Z"/>
    <path class="cls-26" d="M493.99,757.04h-10.57v32.14l-10.89.95v-33.09h-11.41l2.84-10.19h30.03v10.19Z"/>
    <path class="cls-26" d="M562.4,789.18l-10.88,2.36-4.64-9.67h-15.93l-4.1,9.78-10.89-2.48,23.19-45.49,23.24,45.49ZM543.16,772.92l-4.31-9.51-4.2,9.51h8.51Z"/>
    <path class="cls-26" d="M601.01,773.87c0,5.31-1.67,9.42-5.02,12.35-1.57,1.37-3.39,2.41-5.46,3.11-2.18.74-4.4,1.12-6.66,1.16-2.53.03-4.93-.33-7.18-1.08-4.35-1.46-7.34-4.13-8.98-8.01-.8-1.89-1.21-4-1.21-6.32v-28.34l11.09-1v27.5c0,2.36.52,4.08,1.57,5.16,1.04,1.08,2.75,1.62,5.11,1.62,2.11-.21,3.59-.97,4.44-2.29.72-1.1,1.08-2.78,1.08-5.02v-25.87l11.21-1v28.03Z"/>
    <path class="cls-26" d="M639.03,757.04h-10.57v32.14l-10.89.95v-33.09h-11.42l2.84-10.19h30.03v10.19Z"/>
    <path class="cls-26" d="M690.3,768.4c-.03,2.92-.68,5.76-1.93,8.51-2.49,5.48-6.61,9.37-12.35,11.68-2.88,1.16-5.83,1.72-8.86,1.68-4.34-.05-8.27-1.11-11.79-3.18-3.47-2.03-6.16-4.8-8.09-8.31-1.98-3.59-2.94-7.49-2.89-11.7.03-2.91.69-5.74,1.98-8.47,2.53-5.39,6.65-9.19,12.38-11.39,2.84-1.09,5.79-1.62,8.83-1.59,3.06.03,6.01.64,8.85,1.84,5.7,2.43,9.75,6.48,12.13,12.13,1.19,2.85,1.77,5.78,1.73,8.8ZM679.48,768.03c0-.38-.02-.73-.05-1.05-.47-4.46-2.63-7.71-6.47-9.76-1.86-.98-3.82-1.45-5.89-1.44-2.16.02-4.18.65-6.06,1.89-1.81,1.19-3.24,2.77-4.3,4.73-1.14,2.11-1.68,4.28-1.63,6.54.04,1.93.7,3.81,1.97,5.66,1.2,1.76,2.76,3.16,4.69,4.2,2.02,1.09,4.04,1.61,6.07,1.55,1.82-.04,3.69-.68,5.6-1.9,1.81-1.16,3.27-2.65,4.35-4.46,1.16-1.9,1.73-3.89,1.73-5.96Z"/>
    <path class="cls-26" d="M746.05,789.07l-10.89.95-3.52-18.84-10.89,21.35-10.57-21.56-3.79,19.4-10.79-1.21,11.57-44.6,13.57,27.78,14.1-27.67,11.2,44.39Z"/>
    <path class="cls-26" d="M797.01,789.18l-10.88,2.36-4.64-9.67h-15.93l-4.1,9.78-10.89-2.48,23.19-45.49,23.24,45.49ZM777.77,772.92l-4.31-9.51-4.2,9.51h8.51Z"/>
    <path class="cls-26" d="M833.99,757.04h-10.57v32.14l-10.89.95v-33.09h-11.42l2.84-10.19h30.03v10.19Z"/>
    <path class="cls-26" d="M852.61,789.18l-10.84.85v-43.18l10.84-1.1v43.44Z"/>
    <path class="cls-26" d="M906.51,768.4c-.03,2.92-.68,5.76-1.93,8.51-2.49,5.48-6.61,9.37-12.35,11.68-2.88,1.16-5.83,1.72-8.86,1.68-4.34-.05-8.27-1.11-11.79-3.18-3.47-2.03-6.16-4.8-8.09-8.31-1.98-3.59-2.94-7.49-2.89-11.7.03-2.91.69-5.74,1.98-8.47,2.53-5.39,6.65-9.19,12.38-11.39,2.84-1.09,5.79-1.62,8.83-1.59,3.06.03,6.01.64,8.85,1.84,5.7,2.43,9.75,6.48,12.13,12.13,1.19,2.85,1.77,5.78,1.73,8.8ZM895.69,768.03c0-.38-.02-.73-.05-1.05-.47-4.46-2.63-7.71-6.47-9.76-1.86-.98-3.82-1.45-5.89-1.44-2.16.02-4.18.65-6.06,1.89-1.81,1.19-3.24,2.77-4.3,4.73-1.14,2.11-1.68,4.28-1.63,6.54.04,1.93.7,3.81,1.97,5.66,1.2,1.76,2.76,3.16,4.69,4.2,2.02,1.09,4.04,1.61,6.07,1.55,1.82-.04,3.69-.68,5.6-1.9,1.81-1.16,3.27-2.65,4.35-4.46,1.16-1.9,1.73-3.89,1.73-5.96Z"/>
    <path class="cls-26" d="M949.12,792.17l-26.5-23.77v20.77l-10.89.95v-46.12l26.72,24.24v-21.4l10.67-1.1v46.43Z"/>
  </g>
  <g>
    <path class="cls-6" d="M177.36,822.33h23.66v5.18h-23.66v-5.18ZM186.5,825.02h5.38v30.2h-5.38v-30.2Z"/>
    <path class="cls-6" d="M201.93,831.74h5.63v23.48h-5.63v-23.48ZM213.67,836.88c-.53-.2-1.14-.31-1.83-.31-1.36,0-2.41.4-3.16,1.21s-1.12,1.93-1.12,3.36l-.48-5.32c.68-1.4,1.56-2.49,2.66-3.27,1.09-.78,2.3-1.17,3.61-1.17,1.03,0,1.95.16,2.78.46.83.31,1.55.77,2.17,1.37l-3.3,4.55c-.36-.39-.81-.69-1.33-.89Z"/>
    <path class="cls-6" d="M222.58,853.76c-1.34-1.2-2.01-3.02-2.01-5.46s.68-4.06,2.04-5.22c1.36-1.16,3.39-1.74,6.11-1.74h6.29l.32,4.21h-6.58c-1.07,0-1.87.23-2.41.68-.54.45-.8,1.15-.8,2.08,0,.98.35,1.71,1.04,2.18.69.48,1.74.71,3.14.71,1.72,0,3-.19,3.83-.57s1.26-.96,1.26-1.76l.47,3.35c-.26.74-.71,1.36-1.35,1.85-.64.5-1.41.87-2.32,1.12-.9.25-1.89.37-2.96.37-2.7,0-4.72-.6-6.06-1.8ZM234.79,840.33c0-1.31-.39-2.33-1.17-3.05-.78-.72-1.87-1.08-3.29-1.08-.9,0-1.79.14-2.67.43-.88.29-1.66.69-2.35,1.2l-3.6-3.03c.92-1.07,2.13-1.9,3.62-2.5,1.49-.6,3.15-.89,4.98-.89,1.99,0,3.69.34,5.11,1.03,1.42.69,2.5,1.68,3.25,2.99.75,1.3,1.12,2.88,1.12,4.72v15.09h-5v-14.88Z"/>
    <path class="cls-6" d="M246.35,831.74h5.41v23.48h-5.41v-23.48ZM260.26,840.99c0-1.4-.38-2.49-1.13-3.26-.75-.77-1.83-1.15-3.21-1.15s-2.35.36-3.08,1.08c-.72.72-1.09,1.73-1.09,3.04l-.47-4.86c.71-1.45,1.6-2.55,2.68-3.3,1.08-.75,2.35-1.13,3.81-1.13,2.5,0,4.44.83,5.82,2.5s2.07,4.02,2.07,7.07v14.25h-5.41v-14.23Z"/>
    <path class="cls-6" d="M276.86,855.16c-1.27-.26-2.45-.65-3.56-1.17-1.11-.51-2.11-1.14-3-1.88l3.28-4.07c1.19.84,2.41,1.49,3.65,1.92,1.24.44,2.45.66,3.63.66,1.64,0,2.89-.22,3.74-.67.85-.45,1.28-1.09,1.28-1.93,0-.65-.21-1.13-.63-1.46-.42-.32-.95-.55-1.59-.67-.64-.12-1.54-.23-2.7-.34-.2-.02-.4-.03-.61-.05-.21-.01-.42-.04-.61-.07-.06,0-.12,0-.18-.01-.06,0-.12-.01-.18-.01-1.64-.18-2.99-.43-4.05-.76s-1.94-.95-2.66-1.87c-.72-.92-1.07-2.24-1.07-3.96,0-1.61.36-2.97,1.07-4.08.72-1.11,1.77-1.95,3.16-2.51,1.39-.57,3.09-.85,5.11-.85,1.21,0,2.38.12,3.53.35,1.15.23,2.24.57,3.29,1.02,1.05.44,2.04,1,2.97,1.66l-3.24,3.94c-1.1-.66-2.21-1.17-3.34-1.52-1.12-.35-2.21-.52-3.27-.52-1.42,0-2.5.2-3.23.61-.74.41-1.11,1.01-1.11,1.81,0,.51.2.9.61,1.18.41.27.92.46,1.53.55s1.5.2,2.66.31c.12.01.24.03.35.03.11,0,.23.02.35.03h.16c.06,0,.12,0,.18.02,1.73.17,3.17.42,4.32.75,1.15.33,2.12.99,2.92,1.98.8.99,1.2,2.42,1.2,4.31,0,1.66-.38,3.06-1.13,4.2s-1.87,2-3.36,2.58c-1.49.58-3.31.87-5.46.87-1.4,0-2.74-.13-4-.4Z"/>
    <path class="cls-6" d="M294.44,831.74h12.19v4.61h-12.19v-4.61ZM296.93,828.55c0-2.08.48-3.64,1.44-4.67.96-1.03,2.43-1.55,4.42-1.55h3.85v4.95h-2.96c-.44,0-.77.17-1,.5-.23.33-.34.76-.34,1.29v26.15h-5.41v-26.67Z"/>
    <path class="cls-6" d="M314.13,854.36c-1.49-.8-2.62-1.96-3.39-3.5-.78-1.53-1.17-3.37-1.17-5.53v-3.82c0-2.13.39-3.95,1.17-5.46s1.91-2.67,3.39-3.46c1.48-.79,3.27-1.19,5.35-1.19s3.86.4,5.35,1.19c1.49.79,2.62,1.95,3.39,3.46s1.17,3.34,1.17,5.46v3.89c0,2.14-.39,3.97-1.17,5.48s-1.91,2.67-3.39,3.47c-1.49.8-3.27,1.2-5.35,1.2s-3.86-.4-5.35-1.2ZM322.8,849.07c.78-.87,1.18-2.09,1.18-3.67v-3.89c0-1.57-.39-2.78-1.18-3.64s-1.89-1.29-3.33-1.29-2.54.43-3.32,1.29c-.79.86-1.18,2.07-1.18,3.64v3.89c0,1.58.39,2.81,1.17,3.67.78.87,1.89,1.3,3.34,1.3s2.54-.43,3.33-1.3Z"/>
    <path class="cls-6" d="M335.49,831.74h5.63v23.48h-5.63v-23.48ZM347.23,836.88c-.53-.2-1.14-.31-1.83-.31-1.36,0-2.41.4-3.16,1.21s-1.12,1.93-1.12,3.36l-.48-5.32c.68-1.4,1.56-2.49,2.66-3.27,1.09-.78,2.3-1.17,3.61-1.17,1.03,0,1.95.16,2.78.46.83.31,1.55.77,2.17,1.37l-3.3,4.55c-.36-.39-.81-.69-1.33-.89Z"/>
    <path class="cls-6" d="M355.26,831.74h5.41v23.48h-5.41v-23.48ZM369.13,841.33c0-1.52-.37-2.69-1.12-3.52s-1.81-1.23-3.18-1.23-2.35.36-3.08,1.08c-.72.72-1.09,1.73-1.09,3.04l-.47-4.86c.71-1.43,1.61-2.53,2.71-3.29,1.1-.76,2.36-1.14,3.78-1.14,1.64,0,3.05.38,4.23,1.15,1.18.77,2.07,1.9,2.68,3.38.61,1.49.92,3.28.92,5.37v13.91h-5.38v-13.89ZM382.97,841.33c0-1.52-.38-2.69-1.13-3.52s-1.82-1.23-3.21-1.23c-1.31,0-2.33.4-3.04,1.19-.72.79-1.07,1.92-1.07,3.38l-1.04-4.98c.74-1.52,1.71-2.7,2.91-3.53,1.2-.83,2.53-1.24,3.99-1.24,1.69,0,3.13.38,4.33,1.15,1.2.77,2.11,1.9,2.74,3.38.62,1.49.94,3.28.94,5.37v13.91h-5.41v-13.89Z"/>
    <path class="cls-6" d="M394.78,822.33h5.38v5.41h-5.38v-5.41ZM394.78,831.74h5.38v23.48h-5.38v-23.48Z"/>
    <path class="cls-6" d="M406.56,831.74h5.41v23.48h-5.41v-23.48ZM420.47,840.99c0-1.4-.38-2.49-1.13-3.26-.75-.77-1.83-1.15-3.21-1.15s-2.35.36-3.08,1.08c-.72.72-1.09,1.73-1.09,3.04l-.47-4.86c.71-1.45,1.6-2.55,2.68-3.3,1.08-.75,2.35-1.13,3.81-1.13,2.5,0,4.44.83,5.82,2.5s2.07,4.02,2.07,7.07v14.25h-5.41v-14.23Z"/>
    <path class="cls-6" d="M435.43,854.43c-1.2-.78-2.11-1.9-2.74-3.37-.63-1.47-.94-3.25-.94-5.33v-4.48c0-2.08.31-3.86.93-5.35s1.52-2.62,2.7-3.39,2.6-1.17,4.26-1.17c1.33,0,2.54.37,3.63,1.11,1.09.74,1.97,1.78,2.64,3.12l-.48,5c0-.9-.16-1.67-.47-2.31-.32-.63-.78-1.12-1.38-1.45-.6-.33-1.33-.5-2.19-.5-1.34,0-2.38.44-3.12,1.31-.74.88-1.11,2.1-1.11,3.66v4.43c0,1.55.37,2.76,1.11,3.61.74.85,1.78,1.28,3.12,1.28.86,0,1.59-.17,2.19-.51.6-.34,1.06-.83,1.38-1.46.32-.63.47-1.39.47-2.29l.32,5.16c-.47,1.22-1.22,2.21-2.25,2.95-1.03.75-2.28,1.12-3.74,1.12-1.69,0-3.13-.39-4.33-1.17ZM435.67,863.78c-1.43-.66-2.55-1.58-3.35-2.77l3.64-3.33c.56.71,1.23,1.25,2.02,1.63.79.38,1.62.57,2.48.57,1.54,0,2.75-.42,3.64-1.25.89-.84,1.33-2.02,1.33-3.54v-23.34h5.41v22.78c0,2.16-.4,4-1.21,5.54s-1.98,2.71-3.53,3.51c-1.55.8-3.4,1.2-5.58,1.2-1.81,0-3.43-.33-4.86-.98Z"/>
    <path class="cls-6" d="M475.59,855.21h-5.52v-32.89h5.52v32.89Z"/>
    <path class="cls-6" d="M485.6,854.43c-1.2-.78-2.11-1.9-2.74-3.37-.63-1.47-.94-3.25-.94-5.33v-4.48c0-2.08.31-3.86.93-5.35s1.52-2.62,2.7-3.39,2.6-1.17,4.26-1.17c1.33,0,2.54.37,3.63,1.11,1.09.74,1.97,1.78,2.64,3.12l-.48,5c0-.9-.16-1.67-.47-2.31-.32-.63-.78-1.12-1.38-1.45-.6-.33-1.33-.5-2.19-.5-1.34,0-2.38.44-3.12,1.31-.74.88-1.11,2.1-1.11,3.66v4.43c0,1.55.37,2.76,1.11,3.61.74.85,1.78,1.28,3.12,1.28.86,0,1.59-.17,2.19-.51.6-.34,1.06-.83,1.38-1.46.32-.63.47-1.39.47-2.29l.32,5.16c-.47,1.22-1.22,2.21-2.25,2.95-1.03.75-2.28,1.12-3.74,1.12-1.69,0-3.13-.39-4.33-1.17ZM495.61,822.33h5.41v32.89h-5.41v-32.89Z"/>
    <path class="cls-6" d="M511.74,854.33c-1.57-.81-2.77-2.01-3.6-3.58-.83-1.58-1.24-3.48-1.24-5.71v-2.65c0-2.32.4-4.3,1.19-5.95.79-1.64,1.95-2.89,3.46-3.75,1.52-.86,3.34-1.29,5.46-1.29,2,0,3.72.5,5.14,1.5,1.43,1,2.51,2.45,3.26,4.35.75,1.9,1.12,4.19,1.12,6.88v1.54h-15.95v-3.96h10.92l-.02-.25c-.15-1.64-.61-2.92-1.38-3.82-.77-.9-1.8-1.36-3.1-1.36-1.63,0-2.89.51-3.78,1.53-.89,1.02-1.34,2.46-1.34,4.33v2.99c0,1.78.48,3.15,1.45,4.1.96.96,2.32,1.44,4.07,1.44.89,0,1.77-.17,2.63-.51.87-.34,1.65-.81,2.34-1.41l3.53,3.3c-1.19,1.12-2.53,1.98-4.01,2.59-1.49.61-2.98.92-4.49.92-2.22,0-4.11-.41-5.68-1.22Z"/>
    <path class="cls-6" d="M533.3,853.76c-1.34-1.2-2.01-3.02-2.01-5.46s.68-4.06,2.04-5.22c1.36-1.16,3.39-1.74,6.11-1.74h6.29l.32,4.21h-6.58c-1.07,0-1.87.23-2.41.68-.54.45-.8,1.15-.8,2.08,0,.98.35,1.71,1.04,2.18.69.48,1.74.71,3.14.71,1.72,0,3-.19,3.83-.57.84-.38,1.26-.96,1.26-1.76l.47,3.35c-.26.74-.71,1.36-1.35,1.85-.64.5-1.41.87-2.32,1.12s-1.89.37-2.96.37c-2.7,0-4.72-.6-6.06-1.8ZM545.51,840.33c0-1.31-.39-2.33-1.17-3.05-.78-.72-1.87-1.08-3.29-1.08-.9,0-1.79.14-2.67.43-.88.29-1.66.69-2.35,1.2l-3.6-3.03c.92-1.07,2.13-1.9,3.62-2.5s3.15-.89,4.98-.89c1.99,0,3.69.34,5.11,1.03,1.42.69,2.5,1.68,3.25,2.99.75,1.3,1.12,2.88,1.12,4.72v15.09h-5v-14.88Z"/>
    <path class="cls-6" d="M561.7,855.16c-1.27-.26-2.45-.65-3.56-1.17-1.11-.51-2.11-1.14-3-1.88l3.28-4.07c1.19.84,2.41,1.49,3.65,1.92,1.24.44,2.45.66,3.63.66,1.64,0,2.89-.22,3.74-.67.85-.45,1.28-1.09,1.28-1.93,0-.65-.21-1.13-.63-1.46-.42-.32-.95-.55-1.59-.67-.64-.12-1.54-.23-2.7-.34-.2-.02-.4-.03-.61-.05-.21-.01-.42-.04-.61-.07-.06,0-.12,0-.18-.01-.06,0-.12-.01-.18-.01-1.64-.18-2.99-.43-4.05-.76-1.06-.32-1.94-.95-2.66-1.87s-1.07-2.24-1.07-3.96c0-1.61.36-2.97,1.07-4.08s1.77-1.95,3.16-2.51c1.39-.57,3.09-.85,5.11-.85,1.21,0,2.38.12,3.53.35,1.14.23,2.24.57,3.29,1.02,1.05.44,2.04,1,2.97,1.66l-3.24,3.94c-1.1-.66-2.21-1.17-3.34-1.52-1.12-.35-2.21-.52-3.27-.52-1.42,0-2.5.2-3.23.61-.74.41-1.11,1.01-1.11,1.81,0,.51.21.9.61,1.18s.92.46,1.53.55c.61.1,1.5.2,2.66.31.12.01.24.03.35.03.11,0,.23.02.35.03h.16c.06,0,.12,0,.18.02,1.73.17,3.17.42,4.32.75,1.15.33,2.12.99,2.92,1.98.8.99,1.2,2.42,1.2,4.31,0,1.66-.38,3.06-1.13,4.2s-1.88,2-3.36,2.58c-1.48.58-3.31.87-5.46.87-1.4,0-2.74-.13-4-.4Z"/>
    <path class="cls-6" d="M599.27,855.21h-5.52v-32.89h5.52v32.89Z"/>
    <path class="cls-6" d="M606.29,831.74h5.41v23.48h-5.41v-23.48ZM620.2,840.99c0-1.4-.38-2.49-1.13-3.26-.76-.77-1.83-1.15-3.21-1.15s-2.35.36-3.08,1.08c-.72.72-1.09,1.73-1.09,3.04l-.47-4.86c.71-1.45,1.6-2.55,2.68-3.3,1.08-.75,2.35-1.13,3.81-1.13,2.5,0,4.44.83,5.82,2.5,1.38,1.67,2.07,4.02,2.07,7.07v14.25h-5.4v-14.23Z"/>
    <path class="cls-6" d="M630.35,831.74h11.04v4.73h-11.04v-4.73ZM634.15,853.76c-.92-1.05-1.38-2.6-1.38-4.65v-24.2h5.4v23.46c0,.57.11,1.01.34,1.32.23.31.56.46,1,.46h1.88v5.18h-2.89c-1.98,0-3.42-.52-4.34-1.57Z"/>
    <path class="cls-6" d="M651.15,854.36c-1.49-.8-2.62-1.96-3.39-3.5-.78-1.53-1.17-3.37-1.17-5.53v-3.82c0-2.13.39-3.95,1.17-5.46.78-1.52,1.91-2.67,3.39-3.46,1.48-.79,3.27-1.19,5.35-1.19s3.86.4,5.35,1.19c1.48.79,2.62,1.95,3.39,3.46.78,1.52,1.16,3.34,1.16,5.46v3.89c0,2.14-.39,3.97-1.16,5.48-.78,1.52-1.91,2.67-3.39,3.47-1.49.8-3.27,1.2-5.35,1.2s-3.87-.4-5.35-1.2ZM659.82,849.07c.79-.87,1.18-2.09,1.18-3.67v-3.89c0-1.57-.39-2.78-1.18-3.64-.78-.86-1.89-1.29-3.32-1.29s-2.54.43-3.32,1.29c-.79.86-1.18,2.07-1.18,3.64v3.89c0,1.58.39,2.81,1.17,3.67.78.87,1.89,1.3,3.34,1.3s2.54-.43,3.32-1.3Z"/>
    <path class="cls-6" d="M685.41,822.3h5.4v32.91h-5.4v-32.91ZM687.65,836.46h11.33c.75,0,1.42-.18,2-.55.58-.37,1.03-.89,1.35-1.57.32-.68.48-1.47.5-2.38,0-.89-.16-1.67-.47-2.35-.32-.68-.77-1.2-1.35-1.57-.58-.37-1.26-.55-2.03-.55h-11.33v-5.18h11.49c1.86,0,3.48.4,4.89,1.2,1.4.8,2.49,1.93,3.27,3.39.78,1.46,1.16,3.15,1.16,5.07s-.39,3.63-1.16,5.09-1.87,2.59-3.28,3.39c-1.41.8-3.04,1.2-4.88,1.2h-11.49v-5.18ZM695.59,840.63l5.61-1.04,8.64,15.63h-6.49l-7.76-14.59Z"/>
    <path class="cls-6" d="M718.41,854.33c-1.57-.81-2.77-2.01-3.6-3.58-.83-1.58-1.24-3.48-1.24-5.71v-2.65c0-2.32.4-4.3,1.19-5.95.79-1.64,1.95-2.89,3.46-3.75,1.52-.86,3.34-1.29,5.46-1.29,2.01,0,3.72.5,5.15,1.5,1.42,1,2.51,2.45,3.26,4.35.75,1.9,1.12,4.19,1.12,6.88v1.54h-15.95v-3.96h10.93l-.02-.25c-.15-1.64-.61-2.92-1.38-3.82-.77-.9-1.8-1.36-3.1-1.36-1.63,0-2.89.51-3.78,1.53-.89,1.02-1.33,2.46-1.33,4.33v2.99c0,1.78.48,3.15,1.45,4.1.96.96,2.32,1.44,4.07,1.44.89,0,1.77-.17,2.63-.51.87-.34,1.65-.81,2.34-1.41l3.53,3.3c-1.19,1.12-2.53,1.98-4.02,2.59-1.48.61-2.98.92-4.49.92-2.22,0-4.11-.41-5.68-1.22Z"/>
    <path class="cls-6" d="M739.97,853.76c-1.34-1.2-2.01-3.02-2.01-5.46s.68-4.06,2.04-5.22,3.39-1.74,6.11-1.74h6.29l.32,4.21h-6.58c-1.07,0-1.88.23-2.41.68-.54.45-.8,1.15-.8,2.08,0,.98.35,1.71,1.04,2.18.69.48,1.74.71,3.14.71,1.72,0,3-.19,3.83-.57.84-.38,1.26-.96,1.26-1.76l.47,3.35c-.26.74-.71,1.36-1.35,1.85-.64.5-1.41.87-2.32,1.12-.9.25-1.89.37-2.96.37-2.7,0-4.72-.6-6.06-1.8ZM752.18,840.33c0-1.31-.39-2.33-1.16-3.05-.78-.72-1.88-1.08-3.29-1.08-.9,0-1.79.14-2.67.43s-1.66.69-2.35,1.2l-3.6-3.03c.92-1.07,2.13-1.9,3.62-2.5,1.49-.6,3.15-.89,4.98-.89,1.99,0,3.7.34,5.11,1.03,1.42.69,2.5,1.68,3.25,2.99.75,1.3,1.12,2.88,1.12,4.72v15.09h-5v-14.88Z"/>
    <path class="cls-6" d="M769.14,848.32c0,.57.14,1.01.43,1.32.29.31.69.46,1.22.46h1.61v5.18h-2.94c-1.81,0-3.22-.54-4.22-1.63-1-1.09-1.5-2.62-1.5-4.59v-26.74h5.41v25.99Z"/>
    <path class="cls-6" d="M776.99,822.33h5.38v5.41h-5.38v-5.41ZM776.99,831.74h5.38v23.48h-5.38v-23.48Z"/>
    <path class="cls-6" d="M786.97,831.74h11.04v4.73h-11.04v-4.73ZM790.77,853.76c-.92-1.05-1.38-2.6-1.38-4.65v-24.2h5.4v23.46c0,.57.11,1.01.34,1.32.23.31.56.46,1,.46h1.88v5.18h-2.89c-1.98,0-3.42-.52-4.34-1.57Z"/>
    <path class="cls-6" d="M801.4,831.74h5.27l7.55,20.4-3.23,5-9.59-25.4ZM822.64,831.74l-10.22,28.97c-.38,1.07-.86,1.92-1.44,2.54-.58.62-1.3,1.07-2.16,1.35s-1.92.41-3.17.41h-1.15v-5.23h1.15c.77,0,1.39-.16,1.87-.47s.86-.85,1.17-1.61l8.69-25.97h5.27Z"/>
  </g>
</svg>